# Blender v2.81 (sub 16) OBJ File: 'podium.blend'
# www.blender.org
mtllib Book.mtl
o Cube_Cube.002
v -8.000000 29.865490 3.051123
v -8.000000 30.697598 3.605737
v -8.000000 34.302402 -3.605739
v -8.000000 35.134510 -3.051126
v 8.000000 29.865490 3.051123
v 8.000000 30.697598 3.605737
v 8.000000 34.302402 -3.605739
v 8.000000 35.134510 -3.051126
vt 0.800000 0.920000
vt 0.800000 0.900000
vt 0.960000 0.900000
vt 0.960000 0.920000
vt 0.800000 0.900000
vt 0.780000 0.900000
vt 0.780000 0.600000
vt 0.800000 0.600000
vt 0.960000 0.900000
vt 0.960000 0.920000
vt 0.800000 0.920000
vt 0.800000 0.900000
vt 0.780000 0.900000
vt 0.780000 0.600000
vt 0.800000 0.600000
vt 0.125000 0.500000
vt 0.375000 0.500000
vt 0.375000 0.750000
vt 0.125000 0.750000
vt 0.800000 0.900000
vt 0.800000 0.600000
vt 0.960000 0.600000
vt 0.960000 0.900000
vn -1.0000 0.0000 0.0000
vn 0.0000 0.5546 -0.8321
vn 1.0000 0.0000 0.0000
vn 0.0000 -0.5546 0.8321
vn 0.0000 -0.8321 -0.5546
vn 0.0000 0.8321 0.5546
usemtl Material.002
s off
f 1/1/1 2/2/1 4/3/1 3/4/1
f 3/5/2 4/6/2 8/7/2 7/8/2
f 7/9/3 8/10/3 6/11/3 5/12/3
f 5/12/4 6/13/4 2/14/4 1/15/4
f 3/16/5 7/17/5 5/18/5 1/19/5
f 8/20/6 4/21/6 2/22/6 6/23/6
