# Blender v2.81 (sub 16) OBJ File: 'podium.blend'
# www.blender.org
mtllib Podium.mtl
o Circle_Circle.001
v 0.000000 0.000000 -9.000000
v -7.000000 0.000000 -7.000000
v -9.000000 0.000000 0.000000
v -7.000000 0.000000 7.000000
v 0.000000 0.000000 9.000000
v 7.000000 0.000000 7.000000
v 9.000000 0.000000 0.000000
v 7.000000 0.000000 -7.000000
v -2.000000 3.000000 -2.000000
v -2.000000 3.000000 2.000000
v 2.000000 3.000000 2.000000
v 2.000000 3.000000 -2.000000
v -7.000000 3.000000 -7.000000
v 0.000000 3.000000 -9.000000
v -9.000000 3.000000 0.000000
v -7.000000 3.000000 7.000000
v 0.000000 3.000000 9.000000
v 7.000000 3.000000 7.000000
v 9.000000 3.000000 0.000000
v 7.000000 3.000000 -7.000000
v -2.000000 30.000000 2.000000
v -2.000000 33.000000 -2.000000
v 2.000000 33.000000 -2.000000
v 2.000000 30.000000 2.000000
v -9.000000 27.679108 4.532527
v -9.000000 34.562023 -5.297297
v 9.000000 34.562023 -5.297297
v 9.000000 27.679108 4.532527
v -9.000000 28.498259 5.106103
v -9.000000 35.381176 -4.723721
v 9.000000 35.381176 -4.723721
v 9.000000 28.498259 5.106103
vt 0.760000 0.620000
vt 0.760000 0.740000
vt 0.700000 0.740000
vt 0.700000 0.620000
vt 0.760000 0.380000
vt 0.760000 0.500000
vt 0.700000 0.500000
vt 0.700000 0.380000
vt 0.760000 0.140000
vt 0.760000 0.240000
vt 0.700000 0.240000
vt 0.700000 0.140000
vt 0.760000 0.860000
vt 0.760000 0.980000
vt 0.700000 0.980000
vt 0.700000 0.860000
vt 0.760000 0.020000
vt 0.700000 0.020000
vt 0.480000 0.020000
vt 0.480000 0.920000
vt 0.580000 0.980000
vt 0.580000 0.020000
vt 0.240000 0.420000
vt 0.340000 0.320000
vt 0.340000 0.600000
vt 0.240000 0.500000
vt 0.380000 0.460000
vt 0.060000 0.600000
vt 0.160000 0.500000
vt 0.200000 0.640000
vt 0.060000 0.320000
vt 0.160000 0.420000
vt 0.020000 0.460000
vt 0.200000 0.280000
vt 0.500000 0.920000
vt 0.500000 0.020000
vt 0.420000 0.020000
vt 0.420000 0.920000
vt 0.660000 0.020000
vt 0.660000 0.980000
vt 0.580000 0.980000
vt 0.580000 0.020000
vt 0.480000 0.920000
vt 0.480000 0.020000
vt 0.380000 0.980000
vt 0.380000 0.780000
vt 0.400000 0.780000
vt 0.400000 0.980000
vt 0.400000 0.780000
vt 0.400000 0.980000
vt 0.380000 0.980000
vt 0.380000 0.780000
vt 0.020000 0.740000
vt 0.360000 0.740000
vt 0.360000 0.760000
vt 0.020000 0.760000
vt 0.020000 0.740000
vt 0.360000 0.740000
vt 0.360000 0.760000
vt 0.020000 0.760000
vt 0.020000 0.780000
vt 0.360000 0.780000
vt 0.360000 0.980000
vt 0.020000 0.980000
vt 0.360000 0.780000
vt 0.360000 0.980000
vt 0.020000 0.980000
vt 0.020000 0.780000
vn 0.2747 0.0000 -0.9615
vn 0.9615 0.0000 0.2747
vn -0.2747 0.0000 0.9615
vn -0.9615 0.0000 -0.2747
vn 0.9615 0.0000 -0.2747
vn 0.2747 0.0000 0.9615
vn -0.9615 0.0000 0.2747
vn -0.2747 0.0000 -0.9615
vn -1.0000 0.0000 0.0000
vn 0.0000 1.0000 0.0000
vn 0.0000 0.0000 1.0000
vn 0.0000 0.0000 -1.0000
vn 1.0000 0.0000 0.0000
vn 0.0000 0.5736 -0.8192
vn 0.0000 -0.5736 0.8192
vn 0.0000 0.8192 0.5736
vn 0.0000 -0.8192 -0.5736
usemtl Material.001
s off
f 8/1/1 1/2/1 14/3/1 20/4/1
f 6/5/2 7/6/2 19/7/2 18/8/2
f 4/9/3 5/10/3 17/11/3 16/12/3
f 2/13/4 3/14/4 15/15/4 13/16/4
f 7/6/5 8/1/5 20/4/5 19/7/5
f 5/10/6 6/5/6 18/8/6 17/11/6
f 3/17/7 4/9/7 16/12/7 15/18/7
f 1/2/8 2/13/8 13/16/8 14/3/8
f 10/19/9 21/20/9 22/21/9 9/22/9
f 9/23/10 13/24/10 16/25/10 10/26/10
f 15/27/10 16/25/10 13/24/10
f 10/26/10 16/25/10 18/28/10 11/29/10
f 17/30/10 18/28/10 16/25/10
f 11/29/10 18/28/10 20/31/10 12/32/10
f 19/33/10 20/31/10 18/28/10
f 14/34/10 13/24/10 20/31/10
f 9/23/10 12/32/10 20/31/10 13/24/10
f 11/35/11 24/36/11 21/37/11 10/38/11
f 9/39/12 22/40/12 23/41/12 12/42/12
f 12/42/13 23/41/13 24/43/13 11/44/13
f 26/45/9 25/46/9 29/47/9 30/48/9
f 28/49/13 27/50/13 31/51/13 32/52/13
f 27/53/14 26/54/14 30/55/14 31/56/14
f 25/57/15 28/58/15 32/59/15 29/60/15
f 29/61/16 32/62/16 31/63/16 30/64/16
f 25/65/17 26/66/17 27/67/17 28/68/17
o Cube_Cube.002
v -8.000000 29.865490 3.051123
v -8.000000 30.697598 3.605737
v -8.000000 34.302402 -3.605739
v -8.000000 35.134510 -3.051126
v 8.000000 29.865490 3.051123
v 8.000000 30.697598 3.605737
v 8.000000 34.302402 -3.605739
v 8.000000 35.134510 -3.051126
vt 0.800000 0.920000
vt 0.800000 0.900000
vt 0.960000 0.900000
vt 0.960000 0.920000
vt 0.800000 0.900000
vt 0.780000 0.900000
vt 0.780000 0.600000
vt 0.800000 0.600000
vt 0.960000 0.900000
vt 0.960000 0.920000
vt 0.800000 0.920000
vt 0.800000 0.900000
vt 0.780000 0.900000
vt 0.780000 0.600000
vt 0.800000 0.600000
vt 0.125000 0.500000
vt 0.375000 0.500000
vt 0.375000 0.750000
vt 0.125000 0.750000
vt 0.800000 0.900000
vt 0.800000 0.600000
vt 0.960000 0.600000
vt 0.960000 0.900000
vn -1.0000 0.0000 0.0000
vn 0.0000 0.5546 -0.8321
vn 1.0000 0.0000 0.0000
vn 0.0000 -0.5546 0.8321
vn 0.0000 -0.8321 -0.5546
vn 0.0000 0.8321 0.5546
usemtl Material.002
s off
f 33/69/18 34/70/18 36/71/18 35/72/18
f 35/73/19 36/74/19 40/75/19 39/76/19
f 39/77/20 40/78/20 38/79/20 37/80/20
f 37/80/21 38/81/21 34/82/21 33/83/21
f 35/84/22 39/85/22 37/86/22 33/87/22
f 40/88/23 36/89/23 34/90/23 38/91/23
