# Blender v2.81 (sub 16) OBJ File: 'Arco.blend'
# www.blender.org
mtllib Arco.mtl
o Arch_Circle
v -1.187500 3.750000 -0.500000
v -0.875000 4.125000 -0.500000
v -0.312500 4.437500 -0.500000
v 0.312500 4.437500 -0.500000
v 0.875000 4.125000 -0.500000
v 1.187500 3.750000 -0.500000
v 1.312500 3.187500 -0.500000
v 1.687500 4.000000 -0.500000
v 1.125000 4.625000 -0.500000
v 0.437500 5.000000 -0.500000
v -0.437500 5.000000 -0.500000
v -1.125000 4.625000 -0.500000
v -1.687500 4.000000 -0.500000
v -1.312500 3.187500 -0.500000
v 1.875000 3.187500 -0.500000
v -1.875000 3.187500 -0.500000
v -1.187500 3.750000 0.500000
v -0.875000 4.125000 0.500000
v -0.312500 4.437500 0.500000
v 0.312500 4.437500 0.500000
v 0.875000 4.125000 0.500000
v 1.187500 3.750000 0.500000
v 1.312500 3.187500 0.500000
v 1.687500 4.000000 0.500000
v 1.125000 4.625000 0.500000
v 0.437500 5.000000 0.500000
v -0.437500 5.000000 0.500000
v -1.125000 4.625000 0.500000
v -1.687500 4.000000 0.500000
v -1.312500 3.187500 0.500000
v 1.875000 3.187500 0.500000
v -1.875000 3.187500 0.500000
v -1.312500 0.000000 -0.500000
v -1.875000 0.000000 -0.500000
v 1.312500 0.000000 -0.500000
v 1.875000 0.000000 -0.500000
v -1.312500 0.000000 0.500000
v -1.875000 0.000000 0.500000
v 1.312500 0.000000 0.500000
v 1.875000 0.000000 0.500000
vt 0.682927 0.148936
vt 0.682927 0.010638
vt 0.975610 0.010638
vt 0.975610 0.148936
vt 0.682927 0.287234
vt 0.975610 0.287234
vt 0.682927 0.425532
vt 0.975610 0.425532
vt 0.682927 0.574468
vt 0.975610 0.574468
vt 0.682927 0.712766
vt 0.975610 0.712766
vt 0.682927 0.851064
vt 0.975610 0.851064
vt 0.682927 0.989362
vt 0.975610 0.989362
vt 0.682927 0.851064
vt 0.975610 0.851064
vt 0.975610 0.989362
vt 0.682927 0.989362
vt 0.682927 0.712766
vt 0.975610 0.712766
vt 0.682927 0.574468
vt 0.975610 0.574468
vt 0.682927 0.425532
vt 0.975610 0.425532
vt 0.682927 0.287234
vt 0.975610 0.287234
vt 0.682927 0.148936
vt 0.975610 0.148936
vt 0.682927 0.010638
vt 0.975610 0.010638
vt 0.682927 0.287234
vt 0.682927 0.148936
vt 0.975610 0.148936
vt 0.975610 0.287234
vt 0.975610 0.574468
vt 0.975610 0.712766
vt 0.682927 0.712766
vt 0.682927 0.574468
vt 0.682927 0.010638
vt 0.975610 0.010638
vt 0.975610 0.851064
vt 0.682927 0.851064
vt 0.682927 0.851064
vt 0.682927 0.712766
vt 0.975610 0.712766
vt 0.975610 0.851064
vt 0.975610 0.989362
vt 0.682927 0.989362
vt 0.658537 0.989362
vt 0.439024 0.989362
vt 0.439024 0.478723
vt 0.658537 0.478723
vt 0.414634 0.989362
vt 0.024390 0.989362
vt 0.024390 0.478723
vt 0.414634 0.478723
vt 0.682927 0.989362
vt 0.975610 0.989362
vt 0.975610 0.010638
vt 0.975610 0.148936
vt 0.682927 0.148936
vt 0.682927 0.010638
vt 0.682927 0.574468
vt 0.975610 0.574468
vt 0.975610 0.287234
vt 0.682927 0.287234
vt 0.682927 0.425532
vt 0.975610 0.425532
vt 0.975610 0.436170
vt 0.682927 0.436170
vt 0.658537 0.989362
vt 0.439024 0.989362
vt 0.439024 0.478723
vt 0.658537 0.478723
vt 0.414634 0.989362
vt 0.024390 0.989362
vt 0.024390 0.478723
vt 0.414634 0.478723
vt 0.658537 0.989362
vt 0.439024 0.989362
vt 0.439024 0.478723
vt 0.658537 0.478723
vt 0.658537 0.989362
vt 0.439024 0.989362
vt 0.439024 0.478723
vt 0.658537 0.478723
vt 0.414634 0.989362
vt 0.024390 0.989362
vt 0.024390 0.478723
vt 0.414634 0.478723
vt 0.414634 0.989362
vt 0.024390 0.989362
vt 0.024390 0.478723
vt 0.414634 0.478723
vn 0.0000 0.0000 -1.0000
vn 0.0000 0.0000 1.0000
vn -0.7433 0.6690 0.0000
vn -0.4856 -0.8742 0.0000
vn -0.9744 0.2249 0.0000
vn -0.7682 -0.6402 0.0000
vn 0.7433 0.6690 0.0000
vn -0.9762 -0.2169 0.0000
vn 1.0000 0.0000 0.0000
vn 0.9744 0.2249 0.0000
vn 0.9762 -0.2169 0.0000
vn 0.4789 0.8779 0.0000
vn 0.7682 -0.6402 0.0000
vn 0.0000 1.0000 0.0000
vn 0.4856 -0.8742 0.0000
vn -0.4789 0.8779 0.0000
vn 0.0000 -1.0000 0.0000
vn -1.0000 0.0000 0.0000
usemtl Material.001
s off
f 1/1/1 14/2/1 16/3/1 13/4/1
f 2/5/1 1/1/1 13/4/1 12/6/1
f 3/7/1 2/5/1 12/6/1 11/8/1
f 4/9/1 3/7/1 11/8/1 10/10/1
f 5/11/1 4/9/1 10/10/1 9/12/1
f 6/13/1 5/11/1 9/12/1 8/14/1
f 7/15/1 6/13/1 8/14/1 15/16/1
f 17/17/2 29/18/2 32/19/2 30/20/2
f 18/21/2 28/22/2 29/18/2 17/17/2
f 19/23/2 27/24/2 28/22/2 18/21/2
f 20/25/2 26/26/2 27/24/2 19/23/2
f 21/27/2 25/28/2 26/26/2 20/25/2
f 22/29/2 24/30/2 25/28/2 21/27/2
f 23/31/2 31/32/2 24/30/2 22/29/2
f 12/33/3 13/34/3 29/35/3 28/36/3
f 4/37/4 5/38/4 21/39/4 20/40/4
f 13/34/5 16/41/5 32/42/5 29/35/5
f 5/38/6 6/43/6 22/44/6 21/39/6
f 8/45/7 9/46/7 25/47/7 24/48/7
f 6/43/8 7/49/8 23/50/8 22/44/8
f 16/51/1 14/52/1 33/53/1 34/54/1
f 15/55/9 31/56/9 40/57/9 36/58/9
f 15/59/10 8/45/10 24/48/10 31/60/10
f 14/61/11 1/62/11 17/63/11 30/64/11
f 9/46/12 10/65/12 26/66/12 25/47/12
f 1/62/13 2/67/13 18/68/13 17/63/13
f 10/65/14 11/69/14 27/70/14 26/66/14
f 2/67/15 3/71/15 19/72/15 18/68/15
f 11/69/16 12/33/16 28/36/16 27/70/16
f 3/71/17 4/37/17 20/40/17 19/72/17
f 30/73/2 32/74/2 38/75/2 37/76/2
f 14/77/9 30/78/9 37/79/9 33/80/9
f 7/81/1 15/82/1 36/83/1 35/84/1
f 31/85/2 23/86/2 39/87/2 40/88/2
f 23/89/18 7/90/18 35/91/18 39/92/18
f 32/93/18 16/94/18 34/95/18 38/96/18
