# Blender v2.81 (sub 16) OBJ File: ''
# www.blender.org
mtllib Chest.mtl
o Cube.001_Cube.002
v -1.000000 0.000000 0.000000
v -1.000000 0.000000 -1.000000
v -1.000000 0.937500 -0.250000
v -0.125000 0.437500 0.000000
v -1.000000 0.750000 -0.937500
v -1.000000 0.937500 -0.750000
v 1.000000 0.000000 0.000000
v 1.000000 0.937500 -0.687500
v 1.000000 0.937500 -0.250000
v 1.000000 0.750000 -0.062500
v 0.125000 0.437500 0.000000
v 1.000000 0.500000 -1.000000
v 1.000000 0.937500 -0.750000
v 1.000000 0.937500 -0.312500
v 1.000000 0.750000 -0.937500
v 1.000000 0.500000 0.000000
v -0.125000 0.312500 0.000000
v 0.125000 0.312500 0.000000
v -0.125000 0.437500 0.062500
v 0.125000 0.437500 0.062500
v -0.125000 0.312500 0.062500
v 0.125000 0.312500 0.062500
v 1.000000 0.500000 -0.062500
v 1.000000 0.000000 -0.062500
v 1.000000 0.750000 -0.125000
v 1.000000 0.750000 -0.875000
v 1.000000 0.000000 -1.000000
v 1.000000 0.500000 -0.937500
v 1.000000 0.000000 -0.937500
v -1.000000 0.937500 -0.687500
v -1.000000 0.750000 -0.062500
v -1.000000 0.937500 -0.312500
v -1.000000 0.500000 0.000000
v -1.000000 0.500000 -0.062500
v -1.000000 0.000000 -0.062500
v -1.000000 0.750000 -0.125000
v -1.000000 0.750000 -0.875000
v -1.000000 0.500000 -1.000000
v -1.000000 0.500000 -0.937500
v -1.000000 0.000000 -0.937500
vt 0.865672 0.029412
vt 0.985075 0.029412
vt 0.985075 0.970588
vt 0.865672 0.970588
vt 0.149254 0.882353
vt 0.089552 0.882353
vt 0.089552 0.852941
vt 0.149254 0.852941
vt 0.522388 0.029412
vt 0.447761 0.029412
vt 0.447761 0.970588
vt 0.522388 0.970588
vt 0.791045 0.970588
vt 0.791045 0.029412
vt 0.716418 0.970588
vt 0.716418 0.029412
vt 0.597015 0.029412
vt 0.597015 0.970588
vt 0.044776 0.235294
vt 0.059701 0.235294
vt 0.059701 0.470588
vt 0.044776 0.470588
vt 0.298507 0.588235
vt 0.298507 0.441176
vt 0.313433 0.441176
vt 0.313433 0.588235
vt 0.313433 0.735294
vt 0.298507 0.735294
vt 0.298507 0.617647
vt 0.313433 0.617647
vt 0.611940 0.970588
vt 0.611940 0.029412
vt 0.313433 0.735294
vt 0.298507 0.735294
vt 0.298507 0.617647
vt 0.313433 0.617647
vt 0.298507 0.588235
vt 0.298507 0.441176
vt 0.313433 0.441176
vt 0.313433 0.588235
vt 0.268657 0.235294
vt 0.283582 0.235294
vt 0.283582 0.470588
vt 0.268657 0.470588
vt 0.402985 0.441176
vt 0.432836 0.441176
vt 0.328358 0.029412
vt 0.402985 0.558824
vt 0.328358 0.970588
vt 0.432836 0.558824
vt 0.089552 0.823529
vt 0.089552 0.764706
vt 0.149254 0.764706
vt 0.149254 0.823529
vt 0.238806 0.882353
vt 0.179104 0.882353
vt 0.179104 0.852941
vt 0.238806 0.852941
vt 0.059701 0.882353
vt 0.059701 0.852941
vt 0.268657 0.500000
vt 0.059701 0.500000
vt 0.268657 0.235294
vt 0.701493 0.970588
vt 0.701493 0.029412
vt 0.313433 0.441176
vt 0.313433 0.588235
vt 0.298507 0.588235
vt 0.298507 0.441176
vt 0.298507 0.617647
vt 0.313433 0.617647
vt 0.313433 0.735294
vt 0.298507 0.735294
vt 0.253731 0.617647
vt 0.074627 0.617647
vt 0.208955 0.705882
vt 0.119403 0.705882
vt 0.268657 0.470588
vt 0.283582 0.470588
vt 0.283582 0.235294
vt 0.268657 0.500000
vt 0.059701 0.500000
vt 0.059701 0.235294
vt 0.268657 0.235294
vt 0.313433 0.441176
vt 0.313433 0.588235
vt 0.298507 0.588235
vt 0.298507 0.441176
vt 0.298507 0.617647
vt 0.313433 0.617647
vt 0.313433 0.735294
vt 0.298507 0.735294
vt 0.253731 0.617647
vt 0.074627 0.617647
vt 0.208955 0.705882
vt 0.119403 0.705882
vt 0.044776 0.470588
vt 0.059701 0.470588
vt 0.059701 0.235294
vt 0.044776 0.235294
vn 0.0000 0.0000 1.0000
vn 0.0000 1.0000 0.0000
vn 0.0000 0.2425 0.9701
vn 0.0000 -0.2425 0.9701
vn 0.0000 -0.7071 0.7071
vn 0.0000 0.7071 0.7071
vn 1.0000 0.0000 0.0000
vn 0.0000 -1.0000 0.0000
vn -1.0000 0.0000 0.0000
usemtl Material.001
s off
f 38/1/1 2/2/1 27/3/1 12/4/1
f 11/5/2 4/6/2 19/7/2 20/8/2
f 31/9/3 33/10/3 16/11/3 10/12/3
f 38/1/4 12/4/4 15/13/4 5/14/4
f 5/14/5 15/13/5 13/15/5 6/16/5
f 3/17/6 31/9/6 10/12/6 9/18/6
f 7/19/7 24/20/7 23/21/7 16/22/7
f 10/23/7 16/24/7 23/25/7 25/26/7
f 14/27/7 9/28/7 10/29/7 25/30/7
f 14/31/2 32/32/2 3/17/2 9/18/2
f 32/33/7 3/34/7 31/35/7 36/36/7
f 31/37/7 33/38/7 34/39/7 36/40/7
f 1/41/7 35/42/7 34/43/7 33/44/7
f 17/45/1 4/46/1 33/10/1 1/47/1
f 18/48/1 17/45/1 1/47/1 7/49/1
f 11/50/1 18/48/1 7/49/1 16/11/1
f 4/46/1 11/50/1 16/11/1 33/10/1
f 19/51/1 21/52/1 22/53/1 20/54/1
f 17/55/8 18/56/8 22/57/8 21/58/8
f 18/56/7 11/5/7 20/8/7 22/57/7
f 4/6/9 17/59/9 21/60/9 19/7/9
f 28/61/7 23/62/7 24/20/7 29/63/7
f 8/64/2 30/65/2 32/32/2 14/31/2
f 6/16/8 13/15/8 8/64/8 30/65/8
f 28/66/9 26/67/9 15/68/9 12/69/9
f 15/70/9 26/71/9 8/72/9 13/73/9
f 28/61/7 26/74/7 25/75/7 23/62/7
f 25/75/7 26/74/7 8/76/7 14/77/7
f 28/78/9 12/79/9 27/80/9 29/63/9
f 39/81/7 34/82/7 35/83/7 40/84/7
f 39/85/9 37/86/9 5/87/9 38/88/9
f 5/89/9 37/90/9 30/91/9 6/92/9
f 39/81/7 37/93/7 36/94/7 34/82/7
f 36/94/7 37/93/7 30/95/7 32/96/7
f 39/97/9 38/98/9 2/99/9 40/100/9
