# Blender v2.81 (sub 16) OBJ File: 'Arco.blend'
# www.blender.org
mtllib Wall_hole.mtl
o Plane
v 2.000000 0.000000 0.000000
v 1.875000 0.000000 0.000000
v 2.000000 3.187500 0.000000
v 1.875000 3.187500 0.000000
v 2.000000 4.000000 0.000000
v 1.687500 4.000000 0.000000
v 2.000000 4.625000 0.000000
v 1.125000 4.625000 0.000000
v 2.000000 5.000000 0.000000
v 0.437500 5.000000 0.000000
v -2.000000 0.000000 0.000000
v -1.875000 0.000000 0.000000
v -2.000000 3.187500 0.000000
v -1.875000 3.187500 0.000000
v -2.000000 4.000000 0.000000
v -1.687500 4.000000 0.000000
v -2.000000 4.625000 0.000000
v -1.125000 4.625000 0.000000
v -2.000000 5.000000 0.000000
v -0.437500 5.000000 0.000000
vt 1.000000 0.000000
vt 1.000000 0.612500
vt 0.968750 0.612500
vt 0.968750 0.000000
vt 1.000000 0.775000
vt 0.921875 0.775000
vt 1.000000 0.900000
vt 0.781250 0.900000
vt 1.000000 1.000000
vt 0.609375 1.000000
vt 0.000000 0.000000
vt 0.031250 0.000000
vt 0.031250 0.612500
vt 0.000000 0.612500
vt 0.078125 0.775000
vt -0.000000 0.775000
vt 0.218750 0.900000
vt 0.000000 0.900000
vt 0.390625 1.000000
vt -0.000000 1.000000
vn 0.0000 0.0000 1.0000
usemtl Material
s off
f 1/1/1 3/2/1 4/3/1 2/4/1
f 3/2/1 5/5/1 6/6/1 4/3/1
f 5/5/1 7/7/1 8/8/1 6/6/1
f 7/7/1 9/9/1 10/10/1 8/8/1
f 11/11/1 12/12/1 14/13/1 13/14/1
f 13/14/1 14/13/1 16/15/1 15/16/1
f 15/16/1 16/15/1 18/17/1 17/18/1
f 17/18/1 18/17/1 20/19/1 19/20/1
